<svg xmlns="http://www.w3.org/2000/svg" viewBox="0 0 1024 1024"><defs><linearGradient id="a" x1="0" x2="1" y1="0" y2="0" gradientTransform="matrix(404.64385 71.30352 -71.34953 404.38289 183.81 590.38)" gradientUnits="userSpaceOnUse" spreadMethod="pad"><stop offset="0" stop-color="#e6313a"/><stop offset="1" stop-color="#ac2228"/></linearGradient><linearGradient id="b" x1="0" x2="1" y1="0" y2="0" gradientTransform="matrix(252.45409 -163.83988 163.94562 252.29127 268.16 867.2)" gradientUnits="userSpaceOnUse" spreadMethod="pad"><stop offset="0" stop-color="#ff2a35"/><stop offset=".99" stop-color="#fff"/></linearGradient><linearGradient id="c" x1="0" x2="1" y1="0" y2="0" gradientTransform="matrix(640.85081 -415.90505 416.17345 640.43751 320.87 442.66)" gradientUnits="userSpaceOnUse" spreadMethod="pad"><stop offset="0" stop-color="#ff2a35"/><stop offset=".99" stop-color="#fff"/></linearGradient></defs><circle cx="512" cy="512" r="512" fill="#0f140e"/><path fill="#ff2a35" d="M607.52 109.37a76.85 76.85 0 0 1-19.86 106.92 76.96 76.96 0 0 1-106.98-19.82 76.98 76.93 0 0 1 19.85-106.95 76.99 76.99 0 0 1 107 19.85"/><path fill="#f63440" d="M208.76 378.91a53.86 53.86 0 0 1-13.9 74.93 53.94 53.94 0 0 1-74.98-13.9 53.85 53.85 0 0 1 13.91-74.92 53.93 53.93 0 0 1 74.97 13.9"/><path fill="#ff2a35" d="M471.63 419.73C729.7 169.18 936.4 605.2 767.35 908c109.37-147.47 165.2-451.03 13.07-590.82-39.42-36.24-75.24-51.26-108.68-51.26-74.03 0-136.34 73.65-200.1 153.81"/><path fill="url(#a)" d="M360.3 434.05c-52.66 13.6-168.82 65-133.3 222.8.81-5.09 20.62 50.26 36.65 62.27-125.7-228.2 171.53-233.51 204.65-132.43 0 0 39.52 5.5 95.89-30.1-49.73-80.28-95.16-125.24-170.33-125.23-10.56 0-21.72.89-33.56 2.69"/><path fill="url(#b)" d="M639.39 876.23c-339.8-80.47-494.26-375.21-279.09-442.18-228.75 53.12-237.82 393.41 279.09 442.18"/><path fill="url(#c)" d="M468.3 586.7c24.79 69.94 112.3 25.42 95.89-30.12-44.2-149.42 70.25-371.8 214.5-240.98l-.02-.19c-38.47-38.4-84.54-55.74-129.85-55.75-126.98-.01-248.13 136.19-180.52 327.03"/></svg>