
<svg xmlns="http://www.w3.org/2000/svg" viewBox="0 0 1024 1024">
<defs>
<linearGradient id="icon-a" x1="0" y1="0" x2="1" y2="0" gradientUnits="userSpaceOnUse" gradientTransform="matrix(100.37154,-17.698187,-17.698187,-100.37154,310.21875,805.74463)" spreadMethod="pad"><stop offset="0" stop-color="#e6313a"/><stop offset="1" stop-color="#ac2228"/></linearGradient>
<linearGradient id="icon-b" x1="0" y1="0" x2="1" y2="0" gradientUnits="userSpaceOnUse" gradientTransform="matrix(62.621006,40.666561,40.666561,-62.621006,331.13965,737.03613)" spreadMethod="pad"><stop offset="0" stop-color="#ff2a35"/><stop offset=".992" stop-color="#fff"/></linearGradient>
<linearGradient id="icon-c" x1="0" y1="0" x2="1" y2="0" gradientUnits="userSpaceOnUse" gradientTransform="matrix(158.96246,103.23144,103.23144,-158.96246,344.21484,842.41211)" spreadMethod="pad"><stop offset="0" stop-color="#ff2a35"/><stop offset=".992" stop-color="#fff"/></linearGradient>
</defs>
<g transform="matrix(4.03146 0 0 -4.02886 -1066.820453 3836.616282)">
<path fill="#ff2a35" d="M426.892 942.09c7.349-10.69 4.635-25.314-6.062-32.664s-25.316-4.634-32.66 6.056a23.5 23.5 0 0 0 6.06 32.672c10.687 7.344 25.312 4.629 32.662-6.064"/>
<path fill="#f63440" d="M305.153 859.747c5.151-7.498 3.246-17.742-4.242-22.889s-17.741-3.252-22.891 4.245-3.246 17.738 4.247 22.888 17.737 3.248 22.886-4.244"/>
<path fill="#ff2a35" d="M385.406 847.277c78.785 76.539 141.888-56.656 90.279-149.16h0c33.39 45.051 50.433 137.783 3.993 180.487h0c-12.037 11.071-22.973 15.66-33.181 15.66h0c-22.599-.001-41.623-22.499-61.091-46.987"/>
<path fill="url(#icon-a)" d="M351.418 842.903c-16.078-4.152-51.539-19.855-40.698-68.062h0c.25 1.554 6.299-15.354 11.19-19.023h0c-38.374 69.711 52.369 71.334 62.479 40.454h0s12.064-1.678 29.274 9.198h0c-15.183 24.522-29.052 38.257-52 38.256h0c-3.225 0-6.632-.272-10.245-.823"/>
<path fill="url(#icon-b)" d="M436.62 707.821c-103.736 24.585-150.893 114.624-85.202 135.082h0c-69.836-16.229-72.605-120.183 85.202-135.082"/>
<path fill="url(#icon-c)" d="M384.389 796.272c7.567-21.368 34.284-7.767 29.274 9.198h0c-13.491 45.647 21.446 113.579 65.487 73.619h0l-.007.056c-11.746 11.73-25.81 17.03-39.642 17.032h0c-38.766.003-75.754-41.604-55.112-99.905"/>
</g>
</svg>